PathFileType	4	(X/Y/Z)	jw_ngait_og1_rotated.trc
DataRate	CameraRate	NumFrames	NumMarkers	Units	OrigDataRate	OrigDataStartFrame	OrigNumFrames
120.000000	120.000000	6	56	mm	120.000000	1	327
Frame#	Time	Sternum			Neck			RShoulder			LShoulder			Xiphoid			Thoracic			RAsis			LAsis			RPsis			LPsis			Lumbar			RElbow			RWrist			RRadius			RUlna			LElbow			LWrist			LUlna			LRadius			LThighSuperior			LThighInferior			LThighLateral			LPatella			LShankSuperior			LShankInferior			LShankLateral			RThighSuperior			RThighInferior			RThighLateral			RPatella			RShankSuperior			RShankInferior			RShankLateral			RHeel			RToe			RMidfootMedial			RMidfootLateral			RHindfoot			RMidfootSuperior			RToeMedial			RToeLateral			LHeel			LToe			LMidfootMedial			LMidfootLateral			LHindfoot			LMidfootSuperior			LToeMedial			LToeLateral			LShoulderCenter			Oglobal			RShoulderCenter			Sacral			Xglobal			Yglobal			Zglobal			
		X1	Y1	Z1	X2	Y2	Z2	X3	Y3	Z3	X4	Y4	Z4	X5	Y5	Z5	X6	Y6	Z6	X7	Y7	Z7	X8	Y8	Z8	X9	Y9	Z9	X10	Y10	Z10	X11	Y11	Z11	X12	Y12	Z12	X13	Y13	Z13	X14	Y14	Z14	X15	Y15	Z15	X16	Y16	Z16	X17	Y17	Z17	X18	Y18	Z18	X19	Y19	Z19	X20	Y20	Z20	X21	Y21	Z21	X22	Y22	Z22	X23	Y23	Z23	X24	Y24	Z24	X25	Y25	Z25	X26	Y26	Z26	X27	Y27	Z27	X28	Y28	Z28	X29	Y29	Z29	X30	Y30	Z30	X31	Y31	Z31	X32	Y32	Z32	X33	Y33	Z33	X34	Y34	Z34	X35	Y35	Z35	X36	Y36	Z36	X37	Y37	Z37	X38	Y38	Z38	X39	Y39	Z39	X40	Y40	Z40	X41	Y41	Z41	X42	Y42	Z42	X43	Y43	Z43	X44	Y44	Z44	X45	Y45	Z45	X46	Y46	Z46	X47	Y47	Z47	X48	Y48	Z48	X49	Y49	Z49	X50	Y50	Z50	X51	Y51	Z51	X52	Y52	Z52	X53	Y53	Z53	X54	Y54	Z54	X55	Y55	Z55	X56	Y56	Z56	

1.00000	0.95833	1663.93701	1340.05066	-182.26393	1793.19226	1461.47534	-191.52536	1725.89160	1400.99915	-363.27945	1750.98071	1404.35583	-0.31121	1676.31702	1223.76599	-176.73732	1897.32825	1276.83960	-181.02550	1706.91919	998.18439	-312.20813	1720.70300	987.75220	-39.52556	1928.28577	992.85364	-202.13072	1927.40283	989.89227	-141.75496	1917.86646	1060.58923	-176.98438	1796.26440	1076.28796	-459.41467	1718.68457	821.29688	-453.41437	1702.79993	826.83374	-417.13531	1767.88818	821.94446	-453.86038	1835.42822	1082.77454	66.93710	1773.11377	816.37048	69.00881	1823.68530	814.56927	59.96655	1757.82593	838.69537	37.65964	1718.92078	827.69165	9.48424	1588.74719	615.72504	-23.65310	1587.81140	744.78088	-45.85470	1517.24304	547.87091	-69.66852	1589.42334	467.82516	-27.62260	1617.33118	210.22670	-53.76591	1566.07605	335.09900	-94.84886	1784.41772	806.16949	-343.44650	1797.54773	568.70264	-291.50650	1737.98486	655.18011	-272.74521	1777.77417	501.83807	-243.15961	1898.37537	395.00482	-303.92764	1909.56580	161.34450	-256.17566	1856.66504	256.17776	-218.55238	2011.45093	55.84462	-209.73380	1717.49561	38.34843	-268.64087	1791.28210	30.29052	-199.22139	1824.87659	36.56687	-308.91876	1905.71851	22.23651	-294.74051	1837.49756	104.04204	-240.90520	1750.33374	31.35764	-218.99501	1764.98389	37.09295	-305.37357	1701.73035	70.97194	-98.87429	1409.45203	107.06237	-51.21934	1486.95483	78.72285	-122.78448	1513.37134	78.79739	-0.97537	1608.76917	52.82321	-24.86770	1542.60205	150.59671	-71.24143	1442.98499	92.45968	-95.17361	1462.86462	90.64931	-10.22780	1777.85498	1362.44812	-14.27070	0.00000	0.00000	0.00000	1751.75635	1359.87378	-365.30484	1927.84424	991.37292	-171.94284	200.00000	0.00000	0.00000	0.00000	0.00000	-200.00000	0.00000	200.00000	0.00000
2.00000	0.96667	1652.92090	1338.53638	-182.14186	1782.11633	1460.19617	-191.22313	1714.79419	1399.83765	-363.03241	1740.17322	1402.97449	-0.10891	1665.20374	1222.49353	-177.01912	1886.59839	1275.83386	-180.78380	1700.37817	996.45795	-309.44073	1710.45215	986.28308	-39.50374	1918.07288	991.74292	-201.72061	1917.28967	988.93713	-141.51080	1909.33826	1059.38074	-172.91278	1784.98108	1075.20630	-459.80869	1706.74048	820.36993	-453.54565	1690.85474	825.96112	-416.90997	1755.84070	821.01306	-453.97092	1826.02966	1081.53235	67.21602	1767.63147	814.83972	69.17410	1818.19995	813.66687	60.19572	1751.29419	836.92218	37.15678	1708.62671	826.13885	9.85511	1580.78503	613.73328	-24.46955	1578.98145	742.88458	-44.41141	1509.25854	547.30762	-69.63381	1576.65137	464.91406	-27.75796	1589.17212	206.06105	-53.54288	1545.62854	333.71722	-95.71849	1775.56641	805.28986	-343.19153	1791.69727	567.89246	-291.43109	1731.19067	653.71283	-271.88840	1772.89709	500.74979	-242.79335	1894.77600	395.41122	-303.62723	1908.65710	161.43333	-256.25186	1854.11377	255.33632	-217.75136	2011.13159	56.62382	-209.43605	1717.43127	38.03877	-268.68271	1791.09131	29.89594	-199.15419	1824.76562	36.35989	-308.81613	1905.68799	22.33839	-294.67322	1836.99500	103.88548	-240.77759	1750.03894	31.11028	-219.09761	1764.93115	36.90762	-305.70682	1664.76953	61.90151	-98.86639	1375.30750	114.79004	-52.59040	1450.97253	82.64774	-123.78131	1476.63245	79.68203	-1.84661	1570.18713	47.95636	-25.02180	1510.66382	150.35938	-71.09771	1407.93604	98.77726	-96.30991	1426.71155	94.30105	-11.23701	1766.94897	1360.95398	-14.22605	0.00000	0.00000	0.00000	1740.56738	1358.58984	-365.24051	1917.68127	990.34003	-171.61571	200.00000	0.00000	0.00000	0.00000	0.00000	-200.00000	0.00000	200.00000	0.00000
3.00000	0.97500	1641.72656	1336.80884	-182.06705	1770.97424	1458.82361	-190.95903	1703.71973	1398.26050	-362.86386	1729.14099	1401.36462	0.23366	1654.63013	1220.78333	-176.85738	1875.79785	1274.68103	-180.34926	1690.06189	995.19232	-309.47345	1700.16699	984.77118	-39.17994	1907.59094	990.40765	-201.21600	1907.04150	987.75507	-141.09183	1898.99109	1058.12976	-172.71481	1773.67297	1073.95886	-460.06564	1694.80701	819.46875	-453.62436	1679.02649	825.15009	-417.09485	1742.85217	819.16235	-452.81592	1816.87244	1080.47388	67.38556	1761.89209	813.07147	69.00425	1812.70642	812.61542	60.38788	1744.90381	835.35266	36.83999	1698.86743	824.38409	10.75561	1573.46826	610.62128	-25.20799	1570.42725	740.29211	-42.91237	1501.59058	546.47180	-69.66268	1563.42957	461.93851	-28.40563	1561.19434	202.89700	-53.43190	1525.82959	332.65472	-96.48205	1766.66736	804.43243	-342.93149	1785.60303	567.00977	-291.20743	1724.33911	652.47607	-271.89337	1767.68677	499.55814	-242.65836	1890.94348	395.77802	-303.22552	1907.82373	161.60759	-256.31512	1851.65698	255.34412	-218.07268	2010.80737	57.37074	-209.15971	1717.36450	37.76410	-268.80038	1790.90320	29.42613	-199.20459	1824.70288	36.08719	-308.81622	1905.65100	22.50479	-294.57632	1836.45850	103.67248	-240.75343	1749.93372	30.94086	-219.14282	1764.85913	36.81518	-305.96194	1628.31262	54.12584	-99.00247	1342.21753	122.94344	-53.50719	1416.27844	87.75481	-124.90388	1440.85010	81.36736	-2.87630	1531.72754	44.52021	-25.36643	1478.97742	151.32068	-70.67368	1374.14490	105.78545	-97.59798	1391.95630	99.39393	-11.55324	1755.74146	1359.34229	-14.15776	0.00000	0.00000	0.00000	1729.33008	1357.00891	-365.17020	1907.31616	989.08136	-171.15392	200.00000	0.00000	0.00000	0.00000	0.00000	-200.00000	0.00000	200.00000	0.00000
4.00000	0.98333	1630.67517	1335.23706	-181.85239	1759.95496	1457.62012	-190.68864	1692.82288	1396.79236	-362.53101	1717.99707	1399.76697	0.55108	1644.37061	1218.83069	-176.53763	1864.99658	1273.45337	-179.77823	1678.96106	993.53839	-309.87000	1689.49780	983.17932	-39.05966	1896.95215	988.92053	-200.63081	1896.58240	986.35486	-140.43465	1888.03735	1056.71887	-173.17291	1762.48999	1072.62268	-460.29843	1682.91394	818.43774	-453.71414	1667.17456	824.27661	-416.98660	1730.76941	817.87854	-452.72525	1807.60217	1079.34583	67.45248	1756.08765	811.41821	69.07558	1806.99963	811.44873	60.53688	1738.27612	833.71484	36.34005	1690.09412	821.65649	12.00477	1563.04871	608.23175	-26.98840	1561.95508	736.98486	-41.50490	1494.18201	545.09320	-70.20011	1551.08411	459.32571	-28.87394	1533.84009	200.65088	-53.08063	1506.42285	331.92661	-96.95839	1757.57922	803.40234	-342.50946	1779.29102	566.02460	-290.85037	1716.99402	651.12103	-270.99136	1762.46729	498.38016	-242.83943	1886.89136	396.15723	-302.83609	1906.19250	162.45531	-255.92348	1848.78552	255.42191	-218.17670	2010.48865	58.32114	-209.00880	1717.20789	37.27199	-268.74213	1790.75830	29.00360	-199.16678	1824.58154	35.80389	-308.76254	1905.65588	22.71286	-294.46970	1835.82507	103.51886	-240.74635	1749.82068	30.66902	-219.06917	1764.84326	36.64754	-306.04520	1592.21936	48.51266	-98.73880	1309.93079	131.88017	-54.00545	1382.70886	94.46880	-126.19165	1405.48694	84.45050	-4.06022	1494.47449	42.65546	-26.12559	1448.85205	152.95251	-70.22736	1342.83618	115.67271	-100.33151	1359.30884	105.24282	-11.87638	1744.54785	1357.85083	-13.85741	0.00000	0.00000	0.00000	1718.37207	1355.63977	-364.88828	1896.76733	987.63770	-170.53273	200.00000	0.00000	0.00000	0.00000	0.00000	-200.00000	0.00000	200.00000	0.00000
5.00000	0.99167	1619.42834	1333.56104	-181.76787	1748.71216	1455.74463	-190.19064	1681.84961	1395.24475	-361.99417	1706.67627	1398.04297	0.98094	1633.19958	1217.35217	-176.64597	1854.11047	1271.99316	-179.09933	1667.91345	991.95734	-309.95511	1678.98157	981.49933	-38.38408	1886.10718	987.15192	-199.94930	1885.92883	984.95038	-139.77464	1877.23352	1055.15942	-173.23248	1751.48975	1071.16467	-460.52588	1670.80359	817.15125	-453.53357	1655.29199	822.90338	-417.12317	1718.81787	816.55359	-452.80966	1798.11633	1078.10388	67.70118	1750.59180	809.73474	69.25516	1801.05298	810.28052	60.76485	1731.75708	832.17493	36.03133	1682.02820	818.34094	13.74172	1555.63184	604.55408	-27.45097	1553.76514	733.24524	-40.11518	1486.80298	543.68976	-71.16388	1539.07556	456.76178	-29.11313	1507.21582	199.33574	-52.66336	1487.71509	331.65363	-97.54541	1748.36633	802.41498	-342.15170	1772.93738	565.10297	-290.65582	1709.71765	649.81329	-270.72012	1757.08313	497.33636	-243.10068	1882.88489	396.72699	-302.61584	1904.88440	162.79150	-255.59746	1845.83484	255.54031	-218.45209	2010.16052	59.30698	-208.77332	1717.08984	36.96777	-268.89386	1790.60388	28.64234	-199.16093	1824.52319	35.47917	-308.72476	1905.61133	23.00032	-294.23929	1835.15881	103.39555	-240.82069	1749.49512	30.55184	-219.28340	1764.70459	36.35394	-305.90674	1556.91077	43.84051	-98.57999	1279.12830	141.74033	-54.92901	1350.34412	101.38966	-126.48344	1371.85938	88.63493	-4.37813	1459.48230	42.40628	-27.20499	1419.24524	155.50043	-69.45448	1310.54858	122.85149	-99.49586	1326.97302	111.81220	-12.91637	1733.16040	1356.01587	-13.65640	0.00000	0.00000	0.00000	1707.31250	1353.97595	-364.71259	1886.01807	986.05115	-169.86197	200.00000	0.00000	0.00000	0.00000	0.00000	-200.00000	0.00000	200.00000	0.00000
6.00000	1.00000	1607.97021	1331.77869	-181.63673	1737.60132	1454.05676	-189.60913	1671.07214	1393.52332	-361.52792	1695.12415	1396.15759	1.56328	1622.44690	1215.51184	-176.22287	1843.23389	1270.47473	-178.24304	1657.09753	990.44629	-309.86859	1667.94690	979.62732	-38.07703	1875.05334	985.22876	-199.06630	1875.25439	983.27905	-139.03189	1866.33386	1053.38757	-172.78032	1740.52197	1069.61987	-460.72723	1658.76440	815.83459	-453.31329	1643.28369	821.83435	-416.69315	1706.79980	814.88647	-452.75714	1788.49438	1076.81995	67.91444	1744.47986	807.97046	69.38157	1795.01990	809.03796	60.97412	1725.95898	829.93109	36.59064	1673.10657	815.66382	15.06277	1548.49951	600.74646	-27.39119	1545.69495	728.78510	-38.89643	1479.94727	541.89740	-72.17209	1526.93677	454.88809	-30.29204	1481.20728	198.82773	-51.90687	1469.75464	331.41074	-98.78328	1739.06799	801.47955	-341.84592	1766.62646	564.04510	-290.37680	1702.13306	648.47949	-269.94699	1751.45618	496.09430	-242.94881	1878.80811	397.33969	-302.26288	1903.84839	163.91335	-255.33801	1841.05139	256.47998	-219.44661	2009.55994	60.41493	-208.42224	1717.05249	36.60737	-269.39609	1790.19116	28.26560	-199.39088	1824.34912	35.36148	-308.86404	1905.49243	23.41844	-294.17398	1834.48914	103.29505	-240.88890	1749.34961	30.44955	-219.35924	1764.67957	36.04118	-306.09915	1522.81262	40.81844	-98.10983	1250.03711	152.69873	-56.09118	1319.51379	108.74615	-126.67059	1339.75085	94.27229	-4.53841	1426.52173	43.66471	-28.17268	1390.95947	158.84525	-69.05698	1280.31982	132.73204	-99.96122	1295.78796	119.16086	-14.04187	1721.35974	1354.06873	-13.27207	0.00000	0.00000	0.00000	1696.26550	1352.18933	-364.38385	1875.15381	984.25391	-169.04910	200.00000	0.00000	0.00000	0.00000	0.00000	-200.00000	0.00000	200.00000	0.00000
